HIERARCHY
ROOT Hips
{
  OFFSET -31.5692 30.0904 122.763
  CHANNELS 6 Xposition Yposition Zposition Zrotation Xrotation Yrotation
  JOINT LeftUpLeg
  {
    OFFSET 8.64259 1.95398 -2.38835
    CHANNELS 3 Zrotation Xrotation Yrotation
    JOINT LeftLeg
    {
      OFFSET 43.7702 0 0
      CHANNELS 3 Zrotation Xrotation Yrotation
      JOINT LeftFoot
      {
        OFFSET 40.6238 0 0
        CHANNELS 3 Zrotation Xrotation Yrotation
        JOINT LeftToeBase
        {
          OFFSET 12.7242 0 0
          CHANNELS 3 Zrotation Xrotation Yrotation
          End Site
          {
            OFFSET 0 0 0
          }
        }
      }
    }
  }
  JOINT RightUpLeg
  {
    OFFSET -8.2249 1.95398 -2.59336
    CHANNELS 3 Zrotation Xrotation Yrotation
    JOINT RightLeg
    {
      OFFSET 43.5653 0 0
      CHANNELS 3 Zrotation Xrotation Yrotation
      JOINT RightFoot
      {
        OFFSET 40.6238 0 0
        CHANNELS 3 Zrotation Xrotation Yrotation
        JOINT RightToeBase
        {
          OFFSET 12.7242 0 0
          CHANNELS 3 Zrotation Xrotation Yrotation
          End Site
          {
            OFFSET 0 0 0
          }
        }
      }
    }
  }
  JOINT Spine
  {
    OFFSET 0.165834 0.87714 6.61349
    CHANNELS 3 Zrotation Xrotation Yrotation
    JOINT Spine1
    {
      OFFSET 7.38963 1.71661e-005 0
      CHANNELS 3 Zrotation Xrotation Yrotation
      JOINT Spine2
      {
        OFFSET 11.9445 1.14441e-005 0
        CHANNELS 3 Zrotation Xrotation Yrotation
        JOINT Spine3
        {
          OFFSET 14.7254 4.19617e-005 0
          CHANNELS 3 Zrotation Xrotation Yrotation
          JOINT Spine4
          {
            OFFSET 10.9679 0 0
            CHANNELS 3 Zrotation Xrotation Yrotation
            JOINT RightShoulder
            {
              OFFSET 2.46616 -1.6653 3.69651
              CHANNELS 3 Zrotation Xrotation Yrotation
              JOINT RightArm
              {
                OFFSET 13.0012 0 0
                CHANNELS 3 Zrotation Xrotation Yrotation
                JOINT RightForeArm
                {
                  OFFSET 28.7848 1.62311e-005 0
                  CHANNELS 3 Zrotation Xrotation Yrotation
                  JOINT RightHand
                  {
                    OFFSET 26.5688 1.62095e-005 0
                    CHANNELS 3 Zrotation Xrotation Yrotation
                    End Site
                    {
                      OFFSET 0 0 0
                    }
                  }
                }
              }
            }
            JOINT LeftShoulder
            {
              OFFSET 2.38034 -1.29275 -3.7523
              CHANNELS 3 Zrotation Xrotation Yrotation
              JOINT LeftArm
              {
                OFFSET 16.3182 6.07031e-005 0
                CHANNELS 3 Zrotation Xrotation Yrotation
                JOINT LeftForeArm
                {
                  OFFSET 27.0901 0 0
                  CHANNELS 3 Zrotation Xrotation Yrotation
                  JOINT LeftHand
                  {
                    OFFSET 24.5451 1.51738e-005 0
                    CHANNELS 3 Zrotation Xrotation Yrotation
                    End Site
                    {
                      OFFSET 0 0 0
                    }
                  }
                }
              }
            }
            JOINT Neck
            {
              OFFSET 5.0226 -0.0266342 0
              CHANNELS 3 Zrotation Xrotation Yrotation
              JOINT Head
              {
                OFFSET 6.69364 2.86102e-005 0
                CHANNELS 3 Zrotation Xrotation Yrotation
                End Site
                {
                  OFFSET 0 0 0
                }
              }
            }
          }
        }
      }
    }
  }
}
MOTION
Frames:	7
Frame Time:	0.0416667
34.4207 100.966 28.209 -150.914 -79.9526 -151.775 -173.449 -2.96606 88.1856 -19.6867 8.43172 0.188313 74.2242 7.69957 -2.77063 15.4476 -9.97944 6.76734 171.559 -7.16349 87.8373 -9.61585 -18.2948 -1.68 67.9591 -6.63319 -1.43974 25.1412 1.00832 2.918 0.310136 7.58721 -90.0275 11.6999 0.60399 -0.118128 0.0291202 0.598204 -0.144604 -22.5072 0.611562 0.068865 -2.49451 0.611565 0.0688618 91.0798 -30.7082 -104.366 39.7974 -7.81688 -5.2761 5.16038 -33.3609 -15.4855 -24.5833 -1.0076 -5.75153 -87.2693 -52.6893 83.2642 -23.6425 13.5896 -14.1354 -4.93381 12.0765 -0.00789638 5.82935 -0.391903 -14.0451 5.246 -0.656367 -0.521982 -10.0475 -0.664547 2.0139 
34.347 100.745 27.905 -148.197 -80.7116 -149.113 -174.134 -1.77817 87.7369 -20.0869 9.16328 0.651427 74.3813 8.11141 -1.29778 16.1064 -9.90897 7.40133 172.22 -6.36193 88.1808 -9.81061 -21.7415 -2.24176 67.6633 -6.88824 -4.16851 25.507 1.21326 1.36142 0.355416 7.43179 -90 12.0107 0.70668 -0.0768639 0.339976 0.702607 -0.107894 -22.1967 0.697102 0.139084 -2.18404 0.697107 0.139086 90.9321 -31.0837 -104.527 39.8579 -8.61057 -4.58706 6.5822 -31.1942 -14.7182 -25.867 -0.123662 -10.0381 -87.576 -52.6637 82.8125 -23.7424 12.5834 -13.5273 -4.81792 14.6991 -0.00798289 3.0396 -0.00423072 -14.1228 3.88166 -0.830773 -1.08122 -9.15779 -0.775442 2.9066 
34.2934 100.754 27.8081 -149.234 -80.4187 -150.085 -173.985 -2.02489 87.8802 -20.1661 9.15334 0.59303 74.5778 8.22275 -1.33248 16.254 -9.98414 7.72285 172.224 -6.82471 88.2632 -9.46232 -21.7512 -2.23381 67.5485 -6.90331 -4.39208 25.3349 1.23137 1.61386 0.385332 7.48258 -89.9994 11.9092 0.76652 -0.0813642 0.238477 0.762195 -0.115026 -22.2985 0.755534 0.152788 -2.2858 0.755532 0.152778 90.9146 -31.1715 -104.531 39.7356 -8.53336 -4.6261 6.31218 -31.834 -15.0287 -25.3167 -0.296329 -9.30061 -87.7387 -52.3707 82.526 -24.0059 12.1333 -13.6215 -4.75701 15.5984 -0.00801689 2.5288 0.00960627 -15.4989 3.8806 -0.739427 -0.79897 -8.84361 -0.697447 2.30213 
34.2508 100.749 27.727 -149.091 -80.3481 -150.002 -174.057 -2.09498 87.8155 -20.0382 9.09504 0.654957 74.422 8.14591 -1.22751 16.2825 -9.7467 7.29462 172.241 -6.69216 88.2615 -9.77383 -22.0449 -2.2833 67.5934 -6.90265 -4.51378 25.2436 1.39619 1.09821 0.390049 7.48339 -90.0241 11.9078 0.764312 -0.130229 0.237065 0.757838 -0.163756 -22.2999 0.768107 0.105513 -2.28724 0.768114 0.105513 91.1175 -30.9406 -104.212 39.7201 -8.64134 -4.59434 6.168 -33.6101 -15.1851 -24.8926 -0.258209 -9.99231 -87.708 -53.1217 82.6963 -23.3867 12.3371 -13.6134 -4.85225 14.9453 -0.00799197 2.74128 -0.0249574 -15.1127 4.0119 -0.766452 -0.435669 -9.34113 -0.801442 2.39328 
34.2533 100.762 27.6308 -149.18 -80.4242 -150.114 -174.179 -1.95449 87.7153 -20.0897 9.02467 0.746349 74.4802 8.13306 -1.37881 16.0304 -9.97374 7.43782 172.193 -6.37342 88.1896 -10.1219 -21.5566 -2.19672 67.7499 -6.87642 -3.9638 25.4491 1.23388 1.38427 0.364353 7.47443 -90.0258 11.9256 0.71239 -0.128134 0.254827 0.706052 -0.159373 -22.2819 0.717962 0.0919079 -2.26925 0.717957 0.0918956 91.2271 -30.7732 -104.053 39.9567 -8.66287 -4.70565 5.86463 -35.3751 -15.4079 -24.2081 -0.399342 -9.7043 -87.5919 -53.3274 82.8987 -23.0757 12.4923 -13.8018 -5.11848 14.7667 -0.00798537 2.62011 -0.00845076 -14.9812 4.48409 -0.72631 -0.285777 -9.72068 -0.796837 2.43807 
34.2145 100.761 27.6337 -149.381 -80.2058 -150.305 -174.067 -2.13748 87.7994 -20.1304 9.07292 0.668253 74.3765 8.1004 -1.16503 16.3018 -9.72978 7.2842 172.255 -6.72083 88.2403 -9.88492 -21.7323 -2.29766 67.6869 -6.90205 -4.22722 25.2547 1.27757 1.57329 0.376401 7.49769 -90.0277 11.8791 0.735496 -0.133994 0.208363 0.728896 -0.16625 -22.3285 0.741764 0.0932585 -2.31581 0.741771 0.0932607 91.1437 -30.7619 -104.222 40.0415 -8.37242 -4.70453 5.81528 -35.0056 -15.1836 -23.5589 -0.271893 -10.4737 -87.6356 -53.1007 82.7982 -23.3606 12.4531 -13.8142 -5.07332 14.9063 -0.00799052 2.67771 -0.0179207 -15.1325 4.52446 -0.79224 -0.424831 -9.41591 -0.83759 2.57949 
34.191 100.769 27.6104 -149.329 -80.1183 -150.296 -174.008 -2.18698 87.8339 -20.1578 8.88015 0.614665 74.4614 8.04118 -1.57915 16.1771 -9.99275 7.64884 172.228 -6.84144 88.2095 -9.78147 -21.8895 -2.32223 67.7228 -6.97649 -4.41521 25.0233 1.39557 1.52127 0.357009 7.49828 -90.0131 11.8778 0.703791 -0.101613 0.207036 0.698642 -0.132505 -22.3296 0.701794 0.114614 -2.31698 0.701796 0.114607 90.8811 -30.8588 -104.705 40.0415 -8.07838 -4.8713 6.06758 -34.8435 -14.5229 -24.1997 -0.254201 -10.4272 -87.4385 -52.9992 83.0678 -23.435 12.425 -13.7543 -5.17346 14.7512 -0.0079848 2.59964 -0.0303725 -15.4361 4.59481 -0.745796 -0.480684 -9.49713 -0.78825 2.67557 
